<svg width="776" height="205" viewBox="0 0 776 205" fill="none" xmlns="http://www.w3.org/2000/svg">
<path d="M102.257 160V46.2116H147.6C154.382 46.2116 160.473 46.7863 165.875 47.9356C171.277 49.085 175.875 50.924 179.668 53.4527C183.576 55.8664 186.564 58.9697 188.633 62.7626C190.702 66.5556 191.736 71.0956 191.736 76.3828C191.736 80.8653 190.817 84.7732 188.978 88.1064C187.254 91.3247 184.438 94.0257 180.53 96.2095C176.622 98.2784 171.507 99.7151 165.186 100.52V103.106C175.99 103.91 183.863 106.669 188.805 111.381C193.863 115.979 196.391 122.185 196.391 130.001C196.391 136.553 194.725 142.07 191.392 146.552C188.173 150.92 183.231 154.253 176.565 156.552C170.013 158.851 161.738 160 151.738 160H102.257ZM122.946 142.242H152.083C159.899 142.242 165.646 141.035 169.324 138.622C173.116 136.093 175.013 132.243 175.013 127.07C175.013 121.094 172.542 116.611 167.599 113.623C162.772 110.634 155.359 109.14 145.359 109.14H122.946V142.242ZM122.946 95.0027H141.911C151.566 95.0027 158.692 93.6809 163.289 91.0373C168.002 88.3938 170.358 84.3709 170.358 78.9688C170.358 73.7966 168.289 70.0037 164.151 67.59C160.129 65.0614 153.922 63.7971 145.531 63.7971H122.946V95.0027ZM228.076 162.241C223.134 162.241 218.709 161.322 214.801 159.483C210.893 157.529 207.79 154.655 205.491 150.862C203.307 147.069 202.215 142.357 202.215 136.725C202.215 132.013 203.078 127.99 204.802 124.657C206.641 121.323 209.342 118.622 212.905 116.554C216.468 114.37 220.893 112.588 226.18 111.209C231.467 109.715 237.674 108.45 244.8 107.416C248.708 106.841 251.869 106.267 254.282 105.692C256.811 105.117 258.65 104.255 259.799 103.106C260.949 101.841 261.523 100.002 261.523 97.5888C261.523 94.0257 260.259 90.9799 257.73 88.4512C255.317 85.8076 251.351 84.4859 245.834 84.4859C242.501 84.4859 239.283 85.0606 236.18 86.2099C233.191 87.3593 230.605 89.1983 228.421 91.7269C226.237 94.1406 224.743 97.3589 223.939 101.382L204.457 95.3475C205.721 90.75 207.56 86.7846 209.974 83.4514C212.387 80.0033 215.376 77.0724 218.939 74.6587C222.502 72.245 226.582 70.4635 231.18 69.3141C235.777 68.1647 240.835 67.59 246.352 67.59C254.742 67.59 261.638 68.9693 267.04 71.7278C272.442 74.3713 276.465 78.5666 279.109 84.3135C281.752 89.9454 283.074 97.244 283.074 106.209V123.105C283.074 127.013 283.132 131.093 283.247 135.346C283.477 139.484 283.706 143.679 283.936 147.932C284.281 152.069 284.683 156.092 285.143 160H265.661C265.201 156.782 264.799 153.334 264.454 149.656C264.109 145.978 263.822 142.242 263.592 138.449H260.834C259.225 142.817 256.926 146.84 253.938 150.518C250.949 154.081 247.271 156.954 242.903 159.138C238.651 161.207 233.708 162.241 228.076 162.241ZM236.697 146.207C238.996 146.207 241.294 145.805 243.593 145.001C246.007 144.196 248.363 142.989 250.662 141.38C252.961 139.771 255.087 137.817 257.041 135.518C258.995 133.105 260.661 130.289 262.041 127.07L261.696 111.726L265.834 112.416C263.88 114.025 261.466 115.289 258.592 116.209C255.719 117.128 252.673 117.818 249.455 118.278C246.352 118.737 243.191 119.312 239.973 120.002C236.869 120.576 234.053 121.381 231.525 122.415C228.996 123.335 226.985 124.714 225.49 126.553C223.996 128.277 223.249 130.691 223.249 133.794C223.249 137.702 224.513 140.748 227.042 142.932C229.571 145.116 232.789 146.207 236.697 146.207ZM357.853 162.241C352.911 162.241 348.486 161.322 344.578 159.483C340.67 157.529 337.566 154.655 335.268 150.862C333.084 147.069 331.992 142.357 331.992 136.725C331.992 132.013 332.854 127.99 334.578 124.657C336.417 121.323 339.118 118.622 342.681 116.554C346.244 114.37 350.669 112.588 355.956 111.209C361.244 109.715 367.45 108.45 374.576 107.416C378.484 106.841 381.645 106.267 384.059 105.692C386.587 105.117 388.426 104.255 389.576 103.106C390.725 101.841 391.3 100.002 391.3 97.5888C391.3 94.0257 390.036 90.9799 387.507 88.4512C385.093 85.8076 381.128 84.4859 375.611 84.4859C372.278 84.4859 369.059 85.0606 365.956 86.2099C362.968 87.3593 360.382 89.1983 358.198 91.7269C356.014 94.1406 354.52 97.3589 353.715 101.382L334.233 95.3475C335.498 90.75 337.337 86.7846 339.75 83.4514C342.164 80.0033 345.152 77.0724 348.715 74.6587C352.278 72.245 356.359 70.4635 360.956 69.3141C365.554 68.1647 370.611 67.59 376.128 67.59C384.519 67.59 391.415 68.9693 396.817 71.7278C402.219 74.3713 406.242 78.5666 408.885 84.3135C411.529 89.9454 412.851 97.244 412.851 106.209V123.105C412.851 127.013 412.908 131.093 413.023 135.346C413.253 139.484 413.483 143.679 413.713 147.932C414.058 152.069 414.46 156.092 414.92 160H395.438C394.978 156.782 394.576 153.334 394.231 149.656C393.886 145.978 393.599 142.242 393.369 138.449H390.61C389.001 142.817 386.702 146.84 383.714 150.518C380.726 154.081 377.048 156.954 372.68 159.138C368.427 161.207 363.485 162.241 357.853 162.241ZM366.473 146.207C368.772 146.207 371.071 145.805 373.37 145.001C375.783 144.196 378.139 142.989 380.438 141.38C382.737 139.771 384.863 137.817 386.817 135.518C388.771 133.105 390.438 130.289 391.817 127.07L391.472 111.726L395.61 112.416C393.656 114.025 391.242 115.289 388.369 116.209C385.495 117.128 382.45 117.818 379.231 118.278C376.128 118.737 372.967 119.312 369.749 120.002C366.646 120.576 363.83 121.381 361.301 122.415C358.772 123.335 356.761 124.714 355.267 126.553C353.773 128.277 353.026 130.691 353.026 133.794C353.026 137.702 354.29 140.748 356.819 142.932C359.347 145.116 362.565 146.207 366.473 146.207ZM425.983 160V105.002V69.8313H444.086L443.569 97.4164H446.672C448.281 90.635 450.407 85.0606 453.051 80.6929C455.81 76.3253 459.315 73.0496 463.568 70.8657C467.821 68.6819 472.763 67.59 478.395 67.59C488.624 67.59 496.383 71.2106 501.67 78.4516C507.072 85.6927 509.773 96.8991 509.773 112.071V160H487.877V114.312C487.877 104.543 486.383 97.4164 483.395 92.9338C480.521 88.3363 476.211 86.0375 470.464 86.0375C465.637 86.0375 461.556 87.5892 458.223 90.6925C454.89 93.6809 452.304 97.7037 450.465 102.761C448.741 107.703 447.821 113.163 447.706 119.14V160H425.983ZM516.176 160V141.38L564.105 90.0029V87.5892H516.866V69.8313H592.035V88.1064L543.416 139.828V142.07H592.38V160H516.176ZM620.787 162.241C615.844 162.241 611.419 161.322 607.511 159.483C603.603 157.529 600.5 154.655 598.201 150.862C596.018 147.069 594.926 142.357 594.926 136.725C594.926 132.013 595.788 127.99 597.512 124.657C599.351 121.323 602.052 118.622 605.615 116.554C609.178 114.37 613.603 112.588 618.89 111.209C624.177 109.715 630.384 108.45 637.51 107.416C641.418 106.841 644.579 106.267 646.992 105.692C649.521 105.117 651.36 104.255 652.509 103.106C653.659 101.841 654.234 100.002 654.234 97.5888C654.234 94.0257 652.969 90.9799 650.441 88.4512C648.027 85.8076 644.062 84.4859 638.545 84.4859C635.211 84.4859 631.993 85.0606 628.89 86.2099C625.901 87.3593 623.315 89.1983 621.131 91.7269C618.948 94.1406 617.453 97.3589 616.649 101.382L597.167 95.3475C598.431 90.75 600.27 86.7846 602.684 83.4514C605.098 80.0033 608.086 77.0724 611.649 74.6587C615.212 72.245 619.292 70.4635 623.89 69.3141C628.487 68.1647 633.545 67.59 639.062 67.59C647.452 67.59 654.348 68.9693 659.751 71.7278C665.153 74.3713 669.175 78.5666 671.819 84.3135C674.463 89.9454 675.784 97.244 675.784 106.209V123.105C675.784 127.013 675.842 131.093 675.957 135.346C676.187 139.484 676.417 143.679 676.646 147.932C676.991 152.069 677.394 156.092 677.853 160H658.371C657.912 156.782 657.509 153.334 657.164 149.656C656.82 145.978 656.532 142.242 656.302 138.449H653.544C651.935 142.817 649.636 146.84 646.648 150.518C643.659 154.081 639.981 156.954 635.614 159.138C631.361 161.207 626.419 162.241 620.787 162.241ZM629.407 146.207C631.706 146.207 634.005 145.805 636.303 145.001C638.717 144.196 641.073 142.989 643.372 141.38C645.671 139.771 647.797 137.817 649.751 135.518C651.705 133.105 653.372 130.289 654.751 127.07L654.406 111.726L658.544 112.416C656.59 114.025 654.176 115.289 651.303 116.209C648.429 117.128 645.383 117.818 642.165 118.278C639.062 118.737 635.901 119.312 632.683 120.002C629.579 120.576 626.763 121.381 624.235 122.415C621.706 123.335 619.695 124.714 618.201 126.553C616.706 128.277 615.959 130.691 615.959 133.794C615.959 137.702 617.224 140.748 619.752 142.932C622.281 145.116 625.499 146.207 629.407 146.207Z" fill="#12263A"/>
<rect x="303.732" y="39" width="23.7059" height="23.7059" transform="rotate(13.2297 303.732 39)" fill="#12263A"/>
<rect x="294" y="64.8594" width="23.7059" height="23.7059" fill="#12263A"/>
<rect x="298.307" y="88.5654" width="23.7059" height="23.7059" fill="#12263A"/>
<rect x="294" y="112.272" width="23.7059" height="23.7059" fill="#12263A"/>
<rect x="298.307" y="135.978" width="23.7059" height="23.7059" fill="#12263A"/>
</svg>
