<svg width="273" height="96" viewBox="0 0 273 96" fill="none" xmlns="http://www.w3.org/2000/svg">
<path d="M6.28062 74V21.2H27.3206C30.4673 21.2 33.294 21.4667 35.8006 22C38.3073 22.5333 40.4406 23.3867 42.2006 24.56C44.014 25.68 45.4006 27.12 46.3606 28.88C47.3206 30.64 47.8006 32.7467 47.8006 35.2C47.8006 37.28 47.374 39.0933 46.5206 40.64C45.7206 42.1333 44.414 43.3867 42.6006 44.4C40.7873 45.36 38.414 46.0267 35.4806 46.4V47.6C40.494 47.9733 44.1473 49.2533 46.4406 51.44C48.7873 53.5733 49.9606 56.4533 49.9606 60.08C49.9606 63.12 49.1873 65.68 47.6406 67.76C46.1473 69.7867 43.854 71.3333 40.7606 72.4C37.7206 73.4667 33.8806 74 29.2406 74H6.28062ZM15.8806 65.76H29.4006C33.0273 65.76 35.694 65.2 37.4006 64.08C39.1606 62.9067 40.0406 61.12 40.0406 58.72C40.0406 55.9467 38.894 53.8667 36.6006 52.48C34.3606 51.0933 30.9206 50.4 26.2806 50.4H15.8806V65.76ZM15.8806 43.84H24.6806C29.1606 43.84 32.4673 43.2267 34.6006 42C36.7873 40.7733 37.8806 38.9067 37.8806 36.4C37.8806 34 36.9206 32.24 35.0006 31.12C33.134 29.9467 30.254 29.36 26.3606 29.36H15.8806V43.84ZM64.6631 75.04C62.3698 75.04 60.3165 74.6133 58.5031 73.76C56.6898 72.8533 55.2498 71.52 54.1831 69.76C53.1698 68 52.6631 65.8133 52.6631 63.2C52.6631 61.0133 53.0631 59.1467 53.8631 57.6C54.7165 56.0533 55.9698 54.8 57.6231 53.84C59.2765 52.8267 61.3298 52 63.7831 51.36C66.2365 50.6667 69.1165 50.08 72.4231 49.6C74.2365 49.3333 75.7031 49.0667 76.8231 48.8C77.9965 48.5333 78.8498 48.1333 79.3831 47.6C79.9165 47.0133 80.1831 46.16 80.1831 45.04C80.1831 43.3867 79.5965 41.9733 78.4231 40.8C77.3031 39.5733 75.4631 38.96 72.9031 38.96C71.3565 38.96 69.8631 39.2267 68.4231 39.76C67.0365 40.2933 65.8365 41.1467 64.8231 42.32C63.8098 43.44 63.1165 44.9333 62.7431 46.8L53.7031 44C54.2898 41.8667 55.1431 40.0267 56.2631 38.48C57.3831 36.88 58.7698 35.52 60.4231 34.4C62.0765 33.28 63.9698 32.4533 66.1031 31.92C68.2365 31.3867 70.5831 31.12 73.1431 31.12C77.0365 31.12 80.2365 31.76 82.7431 33.04C85.2498 34.2667 87.1165 36.2133 88.3431 38.88C89.5698 41.4933 90.1831 44.88 90.1831 49.04V56.88C90.1831 58.6933 90.2098 60.5867 90.2631 62.56C90.3698 64.48 90.4765 66.4267 90.5831 68.4C90.7431 70.32 90.9298 72.1867 91.1431 74H82.1031C81.8898 72.5067 81.7031 70.9067 81.5431 69.2C81.3831 67.4933 81.2498 65.76 81.1431 64H79.8631C79.1165 66.0267 78.0498 67.8933 76.6631 69.6C75.2765 71.2533 73.5698 72.5867 71.5431 73.6C69.5698 74.56 67.2765 75.04 64.6631 75.04ZM68.6631 67.6C69.7298 67.6 70.7965 67.4133 71.8631 67.04C72.9831 66.6667 74.0765 66.1067 75.1431 65.36C76.2098 64.6133 77.1965 63.7067 78.1031 62.64C79.0098 61.52 79.7831 60.2133 80.4231 58.72L80.2631 51.6L82.1831 51.92C81.2765 52.6667 80.1565 53.2533 78.8231 53.68C77.4898 54.1067 76.0765 54.4267 74.5831 54.64C73.1431 54.8533 71.6765 55.12 70.1831 55.44C68.7431 55.7067 67.4365 56.08 66.2631 56.56C65.0898 56.9867 64.1565 57.6267 63.4631 58.48C62.7698 59.28 62.4231 60.4 62.4231 61.84C62.4231 63.6533 63.0098 65.0667 64.1831 66.08C65.3565 67.0933 66.8498 67.6 68.6631 67.6ZM120.219 75.04C117.926 75.04 115.873 74.6133 114.059 73.76C112.246 72.8533 110.806 71.52 109.739 69.76C108.726 68 108.219 65.8133 108.219 63.2C108.219 61.0133 108.619 59.1467 109.419 57.6C110.273 56.0533 111.526 54.8 113.179 53.84C114.833 52.8267 116.886 52 119.339 51.36C121.793 50.6667 124.673 50.08 127.979 49.6C129.793 49.3333 131.259 49.0667 132.379 48.8C133.553 48.5333 134.406 48.1333 134.939 47.6C135.473 47.0133 135.739 46.16 135.739 45.04C135.739 43.3867 135.153 41.9733 133.979 40.8C132.859 39.5733 131.019 38.96 128.459 38.96C126.913 38.96 125.419 39.2267 123.979 39.76C122.593 40.2933 121.393 41.1467 120.379 42.32C119.366 43.44 118.673 44.9333 118.299 46.8L109.259 44C109.846 41.8667 110.699 40.0267 111.819 38.48C112.939 36.88 114.326 35.52 115.979 34.4C117.633 33.28 119.526 32.4533 121.659 31.92C123.793 31.3867 126.139 31.12 128.699 31.12C132.593 31.12 135.793 31.76 138.299 33.04C140.806 34.2667 142.673 36.2133 143.899 38.88C145.126 41.4933 145.739 44.88 145.739 49.04V56.88C145.739 58.6933 145.766 60.5867 145.819 62.56C145.926 64.48 146.033 66.4267 146.139 68.4C146.299 70.32 146.486 72.1867 146.699 74H137.659C137.446 72.5067 137.259 70.9067 137.099 69.2C136.939 67.4933 136.806 65.76 136.699 64H135.419C134.673 66.0267 133.606 67.8933 132.219 69.6C130.833 71.2533 129.126 72.5867 127.099 73.6C125.126 74.56 122.833 75.04 120.219 75.04ZM124.219 67.6C125.286 67.6 126.353 67.4133 127.419 67.04C128.539 66.6667 129.633 66.1067 130.699 65.36C131.766 64.6133 132.753 63.7067 133.659 62.64C134.566 61.52 135.339 60.2133 135.979 58.72L135.819 51.6L137.739 51.92C136.833 52.6667 135.713 53.2533 134.379 53.68C133.046 54.1067 131.633 54.4267 130.139 54.64C128.699 54.8533 127.233 55.12 125.739 55.44C124.299 55.7067 122.993 56.08 121.819 56.56C120.646 56.9867 119.713 57.6267 119.019 58.48C118.326 59.28 117.979 60.4 117.979 61.84C117.979 63.6533 118.566 65.0667 119.739 66.08C120.913 67.0933 122.406 67.6 124.219 67.6ZM151.833 74V48.48V32.16H160.233L159.993 44.96H161.433C162.18 41.8133 163.166 39.2267 164.393 37.2C165.673 35.1733 167.3 33.6533 169.273 32.64C171.246 31.6267 173.54 31.12 176.153 31.12C180.9 31.12 184.5 32.8 186.953 36.16C189.46 39.52 190.713 44.72 190.713 51.76V74H180.553V52.8C180.553 48.2667 179.86 44.96 178.473 42.88C177.14 40.7467 175.14 39.68 172.473 39.68C170.233 39.68 168.34 40.4 166.793 41.84C165.246 43.2267 164.046 45.0933 163.193 47.44C162.393 49.7333 161.966 52.2667 161.913 55.04V74H151.833ZM193.684 74V65.36L215.924 41.52V40.4H194.004V32.16H228.884V40.64L206.324 64.64V65.68H229.044V74H193.684ZM242.226 75.04C239.932 75.04 237.879 74.6133 236.066 73.76C234.252 72.8533 232.812 71.52 231.746 69.76C230.732 68 230.226 65.8133 230.226 63.2C230.226 61.0133 230.626 59.1467 231.426 57.6C232.279 56.0533 233.532 54.8 235.186 53.84C236.839 52.8267 238.892 52 241.346 51.36C243.799 50.6667 246.679 50.08 249.986 49.6C251.799 49.3333 253.266 49.0667 254.386 48.8C255.559 48.5333 256.412 48.1333 256.946 47.6C257.479 47.0133 257.746 46.16 257.746 45.04C257.746 43.3867 257.159 41.9733 255.986 40.8C254.866 39.5733 253.026 38.96 250.466 38.96C248.919 38.96 247.426 39.2267 245.986 39.76C244.599 40.2933 243.399 41.1467 242.386 42.32C241.372 43.44 240.679 44.9333 240.306 46.8L231.266 44C231.852 41.8667 232.706 40.0267 233.826 38.48C234.946 36.88 236.332 35.52 237.986 34.4C239.639 33.28 241.532 32.4533 243.666 31.92C245.799 31.3867 248.146 31.12 250.706 31.12C254.599 31.12 257.799 31.76 260.306 33.04C262.812 34.2667 264.679 36.2133 265.906 38.88C267.132 41.4933 267.746 44.88 267.746 49.04V56.88C267.746 58.6933 267.772 60.5867 267.826 62.56C267.932 64.48 268.039 66.4267 268.146 68.4C268.306 70.32 268.492 72.1867 268.706 74H259.666C259.452 72.5067 259.266 70.9067 259.106 69.2C258.946 67.4933 258.812 65.76 258.706 64H257.426C256.679 66.0267 255.612 67.8933 254.226 69.6C252.839 71.2533 251.132 72.5867 249.106 73.6C247.132 74.56 244.839 75.04 242.226 75.04ZM246.226 67.6C247.292 67.6 248.359 67.4133 249.426 67.04C250.546 66.6667 251.639 66.1067 252.706 65.36C253.772 64.6133 254.759 63.7067 255.666 62.64C256.572 61.52 257.346 60.2133 257.986 58.72L257.826 51.6L259.746 51.92C258.839 52.6667 257.719 53.2533 256.386 53.68C255.052 54.1067 253.639 54.4267 252.146 54.64C250.706 54.8533 249.239 55.12 247.746 55.44C246.306 55.7067 244.999 56.08 243.826 56.56C242.652 56.9867 241.719 57.6267 241.026 58.48C240.332 59.28 239.986 60.4 239.986 61.84C239.986 63.6533 240.572 65.0667 241.746 66.08C242.919 67.0933 244.412 67.6 246.226 67.6Z" fill="#12263A"/>
<rect x="96.5176" y="19" width="11" height="11" transform="rotate(13.2297 96.5176 19)" fill="#12263A"/>
<rect x="92" y="31" width="11" height="11" fill="#12263A"/>
<rect x="94" y="42" width="11" height="11" fill="#12263A"/>
<rect x="92" y="53" width="11" height="11" fill="#12263A"/>
<rect x="94" y="64" width="11" height="11" fill="#12263A"/>
</svg>
