<svg width="13" height="18" viewBox="0 0 13 18" fill="none" xmlns="http://www.w3.org/2000/svg">
<path d="M1.74999 17.4167C1.31457 17.4167 0.941962 17.2618 0.632156 16.952C0.322351 16.6422 0.167184 16.2693 0.166656 15.8333V7.91667C0.166656 7.48126 0.321823 7.10864 0.632156 6.79884C0.94249 6.48903 1.3151 6.33387 1.74999 6.33334H2.54166V4.75001C2.54166 3.65487 2.92773 2.72149 3.69986 1.94988C4.472 1.17827 5.40538 0.7922 6.49999 0.791672C7.5946 0.791145 8.52824 1.17721 9.30091 1.94988C10.0736 2.72255 10.4594 3.65592 10.4583 4.75001V6.33334H11.25C11.6854 6.33334 12.0583 6.48851 12.3686 6.79884C12.6789 7.10917 12.8339 7.48178 12.8333 7.91667V15.8333C12.8333 16.2688 12.6784 16.6416 12.3686 16.952C12.0588 17.2623 11.6859 17.4172 11.25 17.4167H1.74999ZM6.49999 13.4583C6.93541 13.4583 7.30828 13.3034 7.61861 12.9936C7.92895 12.6838 8.08385 12.311 8.08332 11.875C8.08279 11.4391 7.92789 11.0665 7.61861 10.7572C7.30934 10.4479 6.93646 10.2927 6.49999 10.2917C6.06352 10.2906 5.69091 10.4458 5.38216 10.7572C5.07341 11.0686 4.91824 11.4412 4.91666 11.875C4.91507 12.3088 5.07024 12.6817 5.38216 12.9936C5.69407 13.3055 6.06668 13.4604 6.49999 13.4583ZM4.12499 6.33334H8.87499V4.75001C8.87499 4.09028 8.64409 3.52952 8.18228 3.06771C7.72048 2.60591 7.15971 2.37501 6.49999 2.37501C5.84027 2.37501 5.2795 2.60591 4.8177 3.06771C4.35589 3.52952 4.12499 4.09028 4.12499 4.75001V6.33334Z" fill="white"/>
</svg>
